PathFileType	4	(X/Y/Z)	/home/nbianco/projects/addbio/data/HamnerRunning2013/Processed/subject04//results/MarkerData/run200.trc
DataRate	CameraRate	NumFrames	NumMarkers	Units	OrigDataRate	OrigDataStartFrame	OrigNumFrames
100	100	8	42	m	100	0	237
Frame#	Time	C7			CLAV			LACR			LASI			LCAL			LFAradius			LFAsuperior			LFAulna			LLEL			LMEL			LMT5			LPSI			LTB1			LTB2			LTB3			LTH1			LTH2			LTH3			LTOE			LUA1			LUA2			LUA3			RACR			RASI			RCAL			RFAradius			RFAsuperior			RFAulna			RLEL			RMEL			RMT5			RPSI			RTB1			RTB2			RTB3			RTH1			RTH2			RTH3			RTOE			RUA1			RUA2			RUA3		
		X1	Y1	Z1	X2	Y2	Z2	X3	Y3	Z3	X4	Y4	Z4	X5	Y5	Z5	X6	Y6	Z6	X7	Y7	Z7	X8	Y8	Z8	X9	Y9	Z9	X10	Y10	Z10	X11	Y11	Z11	X12	Y12	Z12	X13	Y13	Z13	X14	Y14	Z14	X15	Y15	Z15	X16	Y16	Z16	X17	Y17	Z17	X18	Y18	Z18	X19	Y19	Z19	X20	Y20	Z20	X21	Y21	Z21	X22	Y22	Z22	X23	Y23	Z23	X24	Y24	Z24	X25	Y25	Z25	X26	Y26	Z26	X27	Y27	Z27	X28	Y28	Z28	X29	Y29	Z29	X30	Y30	Z30	X31	Y31	Z31	X32	Y32	Z32	X33	Y33	Z33	X34	Y34	Z34	X35	Y35	Z35	X36	Y36	Z36	X37	Y37	Z37	X38	Y38	Z38	X39	Y39	Z39	X40	Y40	Z40	X41	Y41	Z41	X42	Y42	Z42

1	0.83	1.14587	1.60033	-0.310001	1.26171	1.51459	-0.268858	1.23511	1.5974	-0.463651	1.24059	1.04549	-0.448863	0.674828	0.316204	-0.375843	1.32783	1.31803	-0.434325	1.22465	1.29543	-0.579803	1.33812	1.24774	-0.447481	1.15076	1.31171	-0.627062	1.08795	1.29876	-0.557894	0.755964	0.10874	-0.426875	1.06676	1.09754	-0.37437	0.947133	0.397539	-0.401491	0.880157	0.380054	-0.445561	0.837408	0.311488	-0.390159	1.14971	0.894765	-0.507347	1.17664	0.75468	-0.471142	1.0727	0.65886	-0.472967	0.79259	0.107017	-0.343003	1.2038	1.49557	-0.56774	1.12294	1.45015	-0.570588	1.16548	1.38342	-0.608428	1.19821	1.5634	-0.135667	1.23321	1.05209	-0.197825	1.23838	0.0919001	-0.29307	1.1881	1.29516	-0.12212	1.03857	1.33869	-0.0468256	1.15974	1.2319	-0.102366	0.955006	1.36639	-0.0359462	0.933326	1.37343	-0.128458	1.45931	0.109884	-0.231867	1.06027	1.09481	-0.28126	1.33088	0.394559	-0.257602	1.30007	0.284333	-0.21905	1.33442	0.220244	-0.285421	1.21455	0.872966	-0.142475	1.27064	0.779776	-0.155558	1.23111	0.640708	-0.178795	1.46762	0.146554	-0.303734	1.09934	1.47601	-0.059428	1.03566	1.49033	-0.0844136	1.01789	1.42863	-0.0464937
2	0.84	1.14628	1.5942	-0.307721	1.26218	1.50797	-0.267924	1.23377	1.59078	-0.463386	1.24022	1.03929	-0.448757	0.674042	0.324915	-0.377183	1.32479	1.30394	-0.437157	1.21739	1.28711	-0.581044	1.33237	1.23375	-0.451987	1.14294	1.30653	-0.625955	1.08165	1.29385	-0.555582	0.747539	0.114958	-0.429392	1.06637	1.09117	-0.373586	0.950855	0.393845	-0.403984	0.88273	0.38025	-0.447411	0.837024	0.313211	-0.392129	1.15139	0.888953	-0.507134	1.18077	0.749701	-0.471767	1.07945	0.651601	-0.473748	0.784324	0.111622	-0.345413	1.19865	1.48986	-0.565198	1.1178	1.44484	-0.567944	1.15865	1.37774	-0.607174	1.19987	1.55599	-0.133988	1.234	1.04661	-0.196999	1.22677	0.0917521	-0.293952	1.19412	1.2867	-0.122017	1.04479	1.3273	-0.0445834	1.16729	1.22301	-0.101528	0.960817	1.3533	-0.0326026	0.93785	1.36065	-0.124772	1.44631	0.0964396	-0.231469	1.06013	1.08803	-0.280309	1.32821	0.38671	-0.258055	1.29419	0.277566	-0.219852	1.32677	0.212498	-0.286095	1.2154	0.867892	-0.142175	1.27272	0.775933	-0.156004	1.23426	0.635597	-0.180478	1.45777	0.132577	-0.302832	1.10284	1.4658	-0.0567148	1.03835	1.47915	-0.0799297	1.02234	1.41633	-0.0433466
3	0.85	1.1467	1.58703	-0.305503	1.26265	1.50013	-0.267354	1.23212	1.58302	-0.462946	1.23959	1.03231	-0.448683	0.675026	0.333008	-0.378135	1.32132	1.28827	-0.44043	1.20937	1.27765	-0.582044	1.32597	1.21836	-0.457041	1.13437	1.30041	-0.624318	1.0748	1.28797	-0.552529	0.740676	0.120963	-0.432291	1.06573	1.08401	-0.372934	0.955643	0.389356	-0.406812	0.886376	0.379798	-0.449349	0.837969	0.314295	-0.394327	1.15285	0.882386	-0.506895	1.18503	0.743808	-0.473122	1.08637	0.64354	-0.475071	0.777762	0.115768	-0.348387	1.19304	1.48315	-0.562166	1.11219	1.43854	-0.564905	1.15129	1.37103	-0.605446	1.20159	1.54757	-0.132361	1.23452	1.04018	-0.196193	1.21334	0.0927452	-0.295073	1.20059	1.27684	-0.121665	1.05158	1.31456	-0.0423897	1.17514	1.21266	-0.100898	0.967362	1.33885	-0.0291973	0.942892	1.3465	-0.120947	1.43177	0.0817893	-0.23093	1.05982	1.08049	-0.279226	1.32566	0.378553	-0.258261	1.28735	0.2708	-0.220801	1.31835	0.204623	-0.287005	1.21642	0.862356	-0.14287	1.2744	0.772052	-0.157947	1.23763	0.63011	-0.181839	1.44615	0.117144	-0.302221	1.10672	1.45437	-0.0540316	1.04142	1.46669	-0.0752707	1.02737	1.4027	-0.0402095
4	0.86	1.14718	1.57882	-0.303407	1.26327	1.49127	-0.266998	1.2302	1.57419	-0.462383	1.23843	1.02461	-0.448757	0.677847	0.340476	-0.378713	1.31734	1.27109	-0.444155	1.20067	1.26722	-0.582764	1.31892	1.20162	-0.462686	1.12518	1.29341	-0.622164	1.06755	1.2812	-0.548825	0.735455	0.126806	-0.435605	1.06457	1.07611	-0.372388	0.96142	0.384127	-0.409723	0.89115	0.37864	-0.451282	0.840275	0.314738	-0.396675	1.15405	0.875008	-0.506535	1.18935	0.736961	-0.475067	1.09349	0.634656	-0.476718	0.77293	0.119472	-0.351925	1.18707	1.47542	-0.558916	1.10612	1.4313	-0.561464	1.14345	1.36332	-0.603248	1.2034	1.5382	-0.130734	1.23451	1.0329	-0.195485	1.1986	0.0943663	-0.296374	1.20748	1.26557	-0.121198	1.05891	1.30059	-0.0402566	1.18326	1.20088	-0.100424	0.974605	1.32314	-0.0257714	0.948366	1.33103	-0.116964	1.41634	0.0686033	-0.230729	1.0592	1.07239	-0.278129	1.32367	0.370854	-0.258707	1.28051	0.264698	-0.222102	1.30953	0.197459	-0.288508	1.21748	0.856649	-0.144027	1.27563	0.768081	-0.160339	1.24108	0.624599	-0.182707	1.43287	0.102466	-0.302649	1.11099	1.4418	-0.0513928	1.04488	1.453	-0.070507	1.03294	1.38788	-0.037042
5	0.87	1.14776	1.5697	-0.301471	1.26422	1.48175	-0.266667	1.22813	1.56456	-0.461964	1.23639	1.01648	-0.449035	0.682673	0.347327	-0.379036	1.31273	1.25244	-0.448379	1.19141	1.256	-0.583179	1.31119	1.18358	-0.468958	1.11556	1.28564	-0.619499	1.0601	1.27364	-0.544592	0.732116	0.132518	-0.439274	1.06263	1.0676	-0.371947	0.968177	0.378419	-0.412289	0.897257	0.376726	-0.453066	0.84406	0.314634	-0.398944	1.15492	0.86672	-0.50596	1.19355	0.729319	-0.47731	1.10082	0.624968	-0.478291	0.769935	0.122775	-0.355929	1.18087	1.46658	-0.555936	1.09966	1.42315	-0.557633	1.13522	1.35467	-0.600498	1.20534	1.52806	-0.128982	1.23365	1.02518	-0.194944	1.18288	0.0961275	-0.297718	1.21475	1.25283	-0.120842	1.06675	1.28547	-0.0381676	1.19163	1.18772	-0.100063	0.982474	1.30631	-0.0224113	0.95419	1.31439	-0.112849	1.40039	0.0600986	-0.231423	1.05805	1.06406	-0.277262	1.32234	0.364577	-0.260206	1.27475	0.260124	-0.22396	1.30023	0.192129	-0.29097	1.21824	0.851328	-0.144614	1.27648	0.763969	-0.161407	1.24447	0.619613	-0.183082	1.41796	0.0911747	-0.304616	1.11559	1.4282	-0.0488026	1.0487	1.43815	-0.065725	1.03898	1.37196	-0.0338373
6	0.88	1.14843	1.5602	-0.299605	1.2655	1.472	-0.266269	1.2261	1.55467	-0.461997	1.23344	1.00854	-0.449424	0.689591	0.353542	-0.379367	1.30741	1.23247	-0.453175	1.18159	1.24412	-0.58328	1.30269	1.16437	-0.475836	1.10557	1.27732	-0.616285	1.05251	1.2655	-0.539847	0.731142	0.138044	-0.443075	1.05999	1.05866	-0.371676	0.976066	0.372664	-0.414098	0.904967	0.374095	-0.454523	0.849503	0.314199	-0.400811	1.15541	0.857572	-0.50521	1.19753	0.721405	-0.47953	1.10836	0.614678	-0.479408	0.769022	0.125753	-0.360142	1.17455	1.45673	-0.553558	1.09288	1.41421	-0.553485	1.12667	1.34512	-0.597027	1.20744	1.51749	-0.126945	1.23187	1.0177	-0.194544	1.16615	0.0978376	-0.298914	1.22239	1.23864	-0.120706	1.07506	1.26918	-0.0360559	1.20023	1.17322	-0.099891	0.990881	1.28851	-0.0192306	0.960438	1.29678	-0.108754	1.38362	0.057009	-0.232938	1.05623	1.05579	-0.27694	1.321	0.360074	-0.263157	1.26989	0.257408	-0.226206	1.28977	0.189065	-0.294136	1.21831	0.846753	-0.143998	1.27692	0.759658	-0.160228	1.24758	0.615447	-0.183229	1.40142	0.0841792	-0.307489	1.12044	1.41365	-0.0462701	1.05276	1.42219	-0.0609281	1.04545	1.35488	-0.0307989
7	0.89	1.14922	1.55122	-0.297618	1.26682	1.46246	-0.265829	1.22419	1.54507	-0.462476	1.23	1.00145	-0.449791	0.698397	0.359026	-0.380029	1.3013	1.21145	-0.458566	1.17111	1.23173	-0.582999	1.29323	1.14427	-0.483252	1.09521	1.26871	-0.61245	1.04484	1.25699	-0.534516	0.733239	0.143233	-0.446741	1.05697	1.04963	-0.371671	0.985318	0.367295	-0.414977	0.914439	0.370922	-0.455539	0.856761	0.313684	-0.40206	1.1556	0.847986	-0.504486	1.20136	0.713968	-0.481491	1.11609	0.604322	-0.479906	0.770562	0.128515	-0.364158	1.16821	1.44627	-0.551688	1.08585	1.40481	-0.549139	1.11785	1.3349	-0.592711	1.20967	1.50688	-0.124552	1.22953	1.01109	-0.19419	1.1483	0.099385	-0.299751	1.23041	1.22316	-0.120775	1.08382	1.25149	-0.033888	1.20906	1.1575	-0.100104	0.999784	1.26995	-0.0163612	0.967351	1.27843	-0.104943	1.3657	0.0572	-0.234487	1.05378	1.04781	-0.27742	1.3185	0.356791	-0.266934	1.26436	0.256044	-0.228206	1.27751	0.187597	-0.297005	1.21755	0.842717	-0.142527	1.27677	0.755098	-0.157609	1.25005	0.611833	-0.18345	1.38352	0.0805097	-0.309956	1.12547	1.39823	-0.0439032	1.05703	1.40523	-0.0560044	1.05236	1.33654	-0.0284195
8	0.9	1.15016	1.54365	-0.295408	1.26785	1.45353	-0.265454	1.22229	1.53608	-0.463026	1.2266	0.995451	-0.450157	0.708597	0.363618	-0.381276	1.29429	1.18985	-0.4644	1.16	1.21928	-0.582184	1.28262	1.12384	-0.491132	1.08456	1.26019	-0.607957	1.0373	1.24839	-0.528587	0.739047	0.147861	-0.450101	1.05387	1.04102	-0.371948	0.996064	0.362599	-0.415148	0.925612	0.367549	-0.456226	0.865876	0.313261	-0.402783	1.15564	0.838771	-0.504	1.20533	0.707617	-0.483082	1.12407	0.594745	-0.479949	0.774963	0.131141	-0.36755	1.16197	1.43593	-0.549938	1.07867	1.39555	-0.544659	1.10883	1.3246	-0.587616	1.21197	1.49664	-0.121965	1.22715	1.00555	-0.193832	1.12951	0.100618	-0.300082	1.23892	1.20679	-0.121106	1.09311	1.23248	-0.0318586	1.21822	1.14087	-0.100873	1.00928	1.25095	-0.0139707	0.975203	1.2596	-0.101685	1.34677	0.057809	-0.235263	1.05098	1.04033	-0.278608	1.31394	0.35363	-0.270106	1.2564	0.255042	-0.229275	1.26345	0.186458	-0.298549	1.21614	0.838667	-0.141095	1.27581	0.750333	-0.15523	1.25129	0.608113	-0.183822	1.36471	0.0785803	-0.31118	1.13074	1.38212	-0.0420138	1.06166	1.38755	-0.0508797	1.05983	1.31722	-0.0272466
